<?xml version="1.0" encoding="UTF-8"?> <svg xmlns="http://www.w3.org/2000/svg" width="71" height="68" viewBox="0 0 71 68" fill="none"><path d="M15.103 33.15c.43.422 1.07.545 1.622.328.085 0 8.627-3.095 21.371 2.514.343.167.769.164 1.152.033.382-.13.678-.432.888-.817.335-.77-.014-1.704-.784-2.04-10.05-4.394-17.674-3.864-21.334-3.153l.178.936c3.532-.667 10.9-1.195 20.78 3.116.3.125.43.508.305.807a.666.666 0 0 1-.338.344c-.17.086-.298.045-.47-.04C25.26 29.447 16.506 32.67 16.42 32.67c-.255.088-.468.047-.64-.122l-.634.644-.043-.042z" fill="#FFF4F2"></path><path d="M18.018 30.015l.178.936c3.532-.667 10.9-1.195 20.78 3.116.3.125.43.508.305.807a.666.666 0 0 1-.338.344c-.17.086-.298.045-.47-.04C25.26 29.447 16.506 32.67 16.42 32.67c-.255.088-.468.047-.64-.122l2.238-2.533z" fill="#FFF4F2"></path><path d="M34.847 52.457a1.523 1.523 0 0 1-.34-1.62c0-.085 3.025-8.65-2.686-21.35-.17-.341-.17-.768-.042-1.151.128-.384.426-.682.81-.895.767-.341 1.704 0 2.045.767 4.475 10.015 4.006 17.643 3.324 21.308l-.938-.17c.64-3.537 1.108-10.91-3.281-20.754-.128-.299-.511-.427-.81-.299a.665.665 0 0 0-.34.341c-.086.17-.043.298.042.469 5.838 13.168 2.685 21.947 2.685 22.033-.085.255-.043.468.128.639l-.64.64.043.042z" fill="#FFF4F2"></path><path d="M37.958 49.516l-.938-.17c.64-3.537 1.108-10.91-3.281-20.754-.128-.299-.511-.427-.81-.299a.665.665 0 0 0-.34.341c-.086.17-.043.298.042.469 5.838 13.168 2.685 21.947 2.685 22.033-.085.255-.043.468.128.639l2.514-2.259z" fill="#FFF4F2"></path><path d="M34.847 52.457a1.523 1.523 0 0 1-.34-1.62c0-.085 3.025-8.65-2.686-21.35-.17-.341-.17-.768-.042-1.151.128-.384.426-.682.81-.895.767-.341 1.704 0 2.045.767 4.475 10.015 4.006 17.643 3.324 21.308l-.938-.17c.64-3.537 1.108-10.91-3.281-20.754-.128-.299-.511-.427-.81-.299a.665.665 0 0 0-.34.341c-.086.17-.043.298.042.469 5.838 13.168 2.685 21.947 2.685 22.033-.085.255-.043.468.128.639l-.64.64.043.042z" fill="#333"></path><path d="M5.185 48.11c-.554-.554-.767-1.364-.554-2.088 2.984-11.336 9.632-19.604 17.729-22.076 4.56-1.406 12.87-3.41 19.007-4.858 0 0 2.429-.725 5.753-5.327l.725.554c-3.538 4.9-6.18 5.668-6.265 5.668-6.137 1.449-14.362 3.452-18.964 4.816-7.8 2.343-14.234 10.398-17.09 21.436-.17.682.256 1.363.895 1.577.682.17 1.364-.256 1.577-.895 2.685-10.186 8.438-17.558 15.385-19.647 3.537-1.065 10.995-2.898 22.032-5.412l.214.895c-11.038 2.514-18.453 4.304-21.948 5.412-6.648 2.046-12.188 9.12-14.745 19.007-.299 1.15-1.535 1.875-2.685 1.577-.426-.17-.767-.34-1.066-.64z" fill="#333"></path><path d="M47.973 26.29c0-.085 1.79-6.563 2.13-9.034a.46.46 0 0 1 .129-.299L57.69 9.5l.639.64-7.33 7.33c-.234 1.809-1.107 5.256-1.661 7.332a68.496 68.496 0 0 1-.47 1.702l-.895-.213z" fill="#FFF4F2"></path><path d="M58.329 10.139l-7.33 7.33c-.234 1.809-1.107 5.256-1.661 7.332C50.392 23.534 52.7 20.9 53.5 20.5c1-.5 4.657-4.723 4.829-10.361z" fill="#FFF4F2"></path><path d="M19.761 62.685a2.255 2.255 0 0 1-.554-.98 2.497 2.497 0 0 1 .213-1.663 2.396 2.396 0 0 1 1.364-1.022c9.887-2.557 17.004-8.14 19.007-14.746 1.875-6.307 5.668-23.31 6.946-28.936.17-.682.256-1.193.341-1.45 0-.084.043-.127.128-.212.213-.213 4.944-5.2 10.995-4.347.213.042.341.17.384.383.767 5.455-3.324 9.973-4.134 10.782l-.17.17-.043.043c-4.603 3.325-5.327 5.754-5.327 5.754-1.45 6.136-3.495 14.404-4.816 18.964-2.472 8.097-10.74 14.745-22.075 17.729-.895.298-1.705.085-2.259-.47zm28.17-48.455c-.043.298-.128.724-.299 1.32-1.236 5.584-5.071 22.63-6.989 28.98-2.088 6.947-9.46 12.7-19.646 15.385-.341.085-.64.298-.767.596-.17.256-.213.64-.128.98.043.214.17.427.34.597.342.341.81.469 1.194.341 11.08-2.898 19.092-9.29 21.436-17.09 1.407-4.56 3.41-12.784 4.859-18.921.042-.128.767-2.727 5.668-6.265l.17-.17c.767-.767 4.39-4.816 3.92-9.631-5.028-.597-9.12 3.239-9.758 3.878z" fill="#333"></path><path d="M47.973 26.29c0-.085 1.79-6.563 2.13-9.034a.46.46 0 0 1 .129-.299L57.69 9.5l.639.64-7.33 7.33c-.341 2.642-2.046 8.779-2.131 9.034l-.895-.213z" fill="#333"></path><path d="M18.482 30.808l-.17-.938c3.11-.554 8.182-.852 14.872.98l-.255.852c-6.862-1.832-11.976-1.32-14.447-.894z" fill="#333"></path><path d="M36.51 35.282l.34-.852c.597.256 1.279.511 1.918.81.298.127.682 0 .81-.299.127-.298 0-.681-.299-.81-1.193-.51-2.386-1.022-3.58-1.448l.299-.895c1.193.426 2.429.895 3.665 1.449.767.34 1.108 1.278.767 2.045-.341.767-1.279 1.108-2.046.767a17.37 17.37 0 0 0-1.875-.767z" fill="#333"></path><path d="M15.414 33.024l.64-.64c.17.17.426.256.639.128.042-.042 6.818-2.471 17.345.895l-.299.895c-10.1-3.196-16.663-.895-16.748-.895-.554.213-1.15.043-1.577-.383z" fill="#333"></path></svg> 