<?xml version="1.0" encoding="UTF-8"?> <svg xmlns="http://www.w3.org/2000/svg" width="65" height="65" viewBox="0 0 65 65" fill="none"><path d="M23.616 56.23l-2.539-14.384L57.04 12.654l2.538 13.961-35.961 29.616z" fill="#FFF4F2"></path><path d="M23.728 57.004h-.148L8.035 53.303a.667.667 0 0 1-.444-.444L5 38.424c0-.222 0-.37.148-.518.148-.148.296-.148.518-.148l15.545 3.7c.222.075.37.223.444.445l2.591 14.435c0 .222 0 .37-.148.518-.074.148-.222.148-.37.148zm-15.1-4.738l14.36 3.406-2.369-13.25-14.36-3.406 2.368 13.25z" fill="#333"></path><path d="M56.49 11.864L20.768 41.614l.71.853L57.2 12.717l-.71-.854z" fill="#333"></path><path d="M24.098 56.93l-.74-.888 35.457-29.536-2.443-13.768L41.42 9.184 5.888 38.794l-.74-.888L40.9 8.148C41.05 8 41.197 8 41.42 8l15.545 3.701c.222.074.37.222.444.444L60 26.58c0 .222-.074.37-.222.518L24.097 56.93z" fill="#333"></path><path d="M25.563 41.513l-1.174 3.588 1.055.346 1.174-3.588-1.055-.346z" fill="#333"></path><path d="M29.049 45.633l-1.175 3.588 1.055.346 1.175-3.588-1.055-.346z" fill="#333"></path><path d="M31.628 39.37l-1.174 3.589 1.055.345 1.175-3.588-1.056-.346z" fill="#333"></path><path d="M34.77 33.494l-1.175 3.588 1.055.345 1.175-3.588-1.056-.345z" fill="#333"></path><path d="M38.326 37.637l-1.175 3.588 1.056.345 1.174-3.588-1.055-.345z" fill="#333"></path><path d="M40.827 31.423l-1.175 3.588 1.056.346 1.174-3.588-1.055-.346z" fill="#333"></path><path d="M43.44 25.956l-1.175 3.588 1.055.345 1.174-3.588-1.055-.345z" fill="#333"></path><path d="M46.999 30.103l-1.175 3.588 1.056.346 1.174-3.588-1.055-.346z" fill="#333"></path><path d="M49.5 23.89l-1.175 3.587 1.055.346 1.175-3.588-1.055-.346z" fill="#333"></path><path d="M52.702 18.27l-1.175 3.588 1.056.346 1.174-3.588-1.055-.345z" fill="#333"></path><path d="M56.258 22.415l-1.174 3.588 1.055.345 1.175-3.588-1.056-.345z" fill="#333"></path></svg> 