<?xml version="1.0" encoding="UTF-8"?> <svg xmlns="http://www.w3.org/2000/svg" width="65" height="65" viewBox="0 0 65 65" fill="none"><path d="M5.234 44.941c-.116.117-2.914 3.303-1.01 5.207 1.904 1.903 5.09-.894 5.245-.972l16.629-14.453c.078-.077.116-.194.155-.31-.039-.117-.078-.233-.155-.311l-5.79-5.79c-.116-.116-.193-.193-.31-.155-.117.04-.233.078-.31.156L5.233 44.94z" fill="#fff"></path><path d="M4.224 50.148c-1.904-1.904.894-5.09 1.01-5.207l14.453-16.628c.078-.078.194-.117.311-.156.117-.038.194.04.31.156l5.79 5.789c.078.078.116.194.155.31-.039.117-.078.234-.155.311L9.469 49.176c-.155.078-3.341 2.875-5.245.972zm15.774-20.98L5.818 45.447c-.04.038-2.41 2.72-1.05 4.079 1.321 1.321 4.04-1.01 4.08-1.049l16.279-14.181-5.129-5.128z" fill="#333"></path><path d="M24.271 33.441l-3.38-3.38a.434.434 0 0 1 0-.622L41.52 8.81c.233-.233 5.168-4.468 8.276-4.779a.412.412 0 0 1 .466.467c-.31 3.108-4.546 8.042-4.779 8.275l-20.63 20.63c-.194.195-.427.195-.583.04z" fill="#FFF4F2"></path><path d="M24.271 33.441l-3.38-3.38a.434.434 0 0 1 0-.622L41.52 8.81c.233-.233 5.168-4.468 8.276-4.779a.412.412 0 0 1 .466.467c-.31 3.108-4.546 8.042-4.779 8.275l-20.63 20.63c-.194.195-.427.195-.583.04zm-2.486-3.652l2.758 2.759 20.32-20.32c.038-.039 3.73-4.351 4.429-7.226-2.875.699-7.188 4.39-7.266 4.468L21.784 29.79z" fill="#333"></path><path d="M43.613 10.471l-2.008.32.13.813 2.008-.319-.13-.814z" fill="#333"></path><path d="M42.828 12.797l-2.008.32.13.814 2.008-.32-.13-.814z" fill="#333"></path><path d="M40.06 13.995l-2.007.32.13.813 2.007-.319-.13-.814z" fill="#333"></path><path d="M39.274 16.321l-2.007.32.13.814 2.007-.32-.13-.814z" fill="#333"></path><path d="M36.727 17.397l-2.008.319.13.814 2.007-.32-.13-.813z" fill="#333"></path><path d="M35.941 19.723l-2.007.32.129.813 2.008-.319-.13-.814z" fill="#333"></path><path d="M33.191 20.933l-2.007.32.129.813 2.008-.32-.13-.813z" fill="#333"></path><path d="M32.408 23.259l-2.008.32.13.813 2.008-.319-.13-.814z" fill="#333"></path><path d="M29.788 24.298l-2.008.32.13.814 2.007-.32-.13-.814z" fill="#333"></path><path d="M29.004 26.624l-2.008.32.13.814 2.007-.32-.13-.814z" fill="#333"></path><path d="M26.272 27.847l-2.007.32.13.813 2.007-.319-.13-.814z" fill="#333"></path><path d="M25.488 30.174l-2.008.319.13.814 2.008-.32-.13-.813z" fill="#333"></path><path d="M16.384 60.754c-1.748-1.748-1.71-4.584 0-6.294L54.42 16.424c1.749-1.748 4.585-1.71 6.294 0 1.749 1.748 1.71 4.585 0 6.294L22.678 60.754a4.432 4.432 0 0 1-6.294 0z" fill="#FFF4F2"></path><path d="M16.384 60.754c-1.748-1.748-1.71-4.584 0-6.294L54.42 16.424c1.749-1.748 4.585-1.71 6.294 0 1.749 1.748 1.71 4.585 0 6.294L22.678 60.754a4.432 4.432 0 0 1-6.294 0zM60.17 16.968a3.623 3.623 0 0 0-5.128 0L17.006 55.004a3.623 3.623 0 0 0 0 5.129c1.398 1.398 3.73 1.398 5.128 0L60.17 22.096c1.4-1.398 1.4-3.73 0-5.128z" fill="#333"></path><path d="M16.385 60.754c-1.748-1.748-1.71-4.584 0-6.294l19.038-19.037a.433.433 0 0 1 .621 0l5.75 5.75a.433.433 0 0 1 0 .621L22.757 60.832c-1.826 1.67-4.624 1.67-6.372-.078z" fill="#fff"></path><path d="M16.385 60.754c-1.748-1.748-1.71-4.584 0-6.294l19.038-19.037a.433.433 0 0 1 .621 0l5.75 5.75a.433.433 0 0 1 0 .621L22.757 60.832c-1.826 1.67-4.624 1.67-6.372-.078zm19.27-24.476L16.93 55.004a3.623 3.623 0 0 0 0 5.129c1.399 1.398 3.73 1.398 5.129 0l18.726-18.727-5.128-5.128z" fill="#333"></path></svg> 