<?xml version="1.0" encoding="UTF-8"?> <svg xmlns="http://www.w3.org/2000/svg" width="65" height="65" viewBox="0 0 65 65" fill="none"><path d="M62.688 9.523h-1.243a.508.508 0 1 0 0 1.016h1.243c.848 0 1.296.439 1.296 1.27v18.29c0 .85-.495 1.768-1.296 1.768H2.782c-.842 0-1.766-.925-1.766-1.768v-18.29c0-.795.898-1.27 1.766-1.27h.773a.508.508 0 1 0 0-1.016h-.773C1.415 9.523 0 10.38 0 11.81v18.29c0 1.405 1.378 2.784 2.782 2.784h59.906c1.447 0 2.312-1.416 2.312-2.784v-18.29c0-1.388-.907-2.286-2.312-2.286z" fill="#333"></path><path d="M61.445 8H3.555a.508.508 0 0 0-.508.508v13.446c0 1.415 1.378 2.804 2.782 2.804h53.813c1.446 0 2.311-1.426 2.311-2.804V8.508A.508.508 0 0 0 61.445 8zm-.508 13.954c0 .86-.495 1.788-1.295 1.788H5.829c-.825 0-1.766-.952-1.766-1.788V9.016h56.874v12.938z" fill="#333"></path><path d="M60.43 26.281a.508.508 0 0 0-.508.508v5.586a.508.508 0 1 0 1.016 0v-5.586a.508.508 0 0 0-.508-.508z" fill="#333"></path><path d="M4.57 26.281a.508.508 0 0 0-.508.508v5.586a.508.508 0 1 0 1.016 0v-5.586a.508.508 0 0 0-.508-.508z" fill="#333"></path><path d="M64.492 26.281H.508a.508.508 0 1 0 0 1.016h63.984a.508.508 0 1 0 0-1.016z" fill="#333"></path><path d="M60 27H4.57c-.058 1.508-.001 3.494 0 5H60v-2.5V27z" fill="#FFF4F2"></path><path d="M53.32 29.328H4.57a.508.508 0 1 0 0 1.016h48.75a.508.508 0 1 0 0-1.016z" fill="#333"></path><path d="M60.43 29.328h-4.063a.508.508 0 1 0 0 1.016h4.063a.508.508 0 1 0 0-1.016z" fill="#333"></path><mask id="a" fill="#fff"><path fill-rule="evenodd" clip-rule="evenodd" d="M12.208 47.088c1.316-2.48 2.087-5.442 2.646-9.654a.5.5 0 0 1 .99.132c-.564 4.261-1.356 7.357-2.753 9.99-1.4 2.638-3.386 4.772-6.274 7.144a.5.5 0 1 1-.634-.773c2.834-2.328 4.711-4.364 6.025-6.84z"></path></mask><path fill-rule="evenodd" clip-rule="evenodd" d="M12.208 47.088c1.316-2.48 2.087-5.442 2.646-9.654a.5.5 0 0 1 .99.132c-.564 4.261-1.356 7.357-2.753 9.99-1.4 2.638-3.386 4.772-6.274 7.144a.5.5 0 1 1-.634-.773c2.834-2.328 4.711-4.364 6.025-6.84z" fill="#333"></path><path d="M14.854 37.434l.99.132-.99-.132zm-2.646 9.654l-.884-.47.884.47zm3.207-10.084l.131-.99-.131.99zm.43.562l-.992-.132.992.132zm-2.754 9.99l.883.469-.883-.469zM6.817 54.7l.635.773-.635-.773zm-.703-.07l.772-.634-.772.635zm.069-.703l-.635-.773.635.773zm7.68-16.624c-.552 4.162-1.303 6.988-2.539 9.316l1.767.937c1.397-2.633 2.19-5.729 2.754-9.99l-1.983-.263zm1.683-1.29a1.5 1.5 0 0 0-1.684 1.29l1.983.263a.5.5 0 0 1-.562.43l.263-1.983zm1.29 1.684a1.5 1.5 0 0 0-1.29-1.684l-.262 1.983a.5.5 0 0 1-.43-.562l1.982.263zm-2.862 10.328c1.478-2.785 2.29-6.017 2.862-10.328l-1.982-.263c-.559 4.212-1.33 7.173-2.646 9.654l1.766.937zm-6.522 7.448c2.941-2.416 5.037-4.648 6.522-7.448l-1.766-.937c-1.314 2.475-3.19 4.511-6.025 6.84l1.269 1.545zm-2.111-.207a1.5 1.5 0 0 0 2.111.207l-1.27-1.546a.5.5 0 0 1 .704.07l-1.545 1.269zm.207-2.112a1.5 1.5 0 0 0-.207 2.111l1.545-1.269a.5.5 0 0 1-.069.704l-1.269-1.546zm5.776-6.535c-1.227 2.314-2.995 4.251-5.776 6.535l1.27 1.546c2.887-2.372 4.873-4.506 6.273-7.144l-1.767-.937z" fill="#333" mask="url(#a)"></path><mask id="b" fill="#fff"><path fill-rule="evenodd" clip-rule="evenodd" d="M20.05 55.657c2.807-5.803 3.854-9.767 4.788-18.212a.5.5 0 0 1 .994.11c-.943 8.525-2.012 12.606-4.882 18.537a.5.5 0 0 1-.9-.435z"></path></mask><path fill-rule="evenodd" clip-rule="evenodd" d="M20.05 55.657c2.807-5.803 3.854-9.767 4.788-18.212a.5.5 0 0 1 .994.11c-.943 8.525-2.012 12.606-4.882 18.537a.5.5 0 0 1-.9-.435z" fill="#333"></path><path d="M24.838 37.445l-.993-.11.994.11zM20.05 55.657l.9.435-.9-.435zm5.34-18.654l.11-.994-.11.994zm.442.552l.994.11-.994-.11zM20.95 56.092l-.9-.435.9.435zm-.668.233l-.435.9.435-.9zm3.563-18.99c-.926 8.365-1.95 12.212-4.695 17.886l1.8.871c2.87-5.93 3.939-10.012 4.883-18.537l-1.988-.22zm1.655-1.326a1.5 1.5 0 0 0-1.655 1.326l1.988.22a.5.5 0 0 1-.552.442l.22-1.988zm1.326 1.656A1.5 1.5 0 0 0 25.5 36.01l-.22 1.988a.5.5 0 0 1-.442-.552l1.988.22zM21.85 56.528c2.932-6.06 4.024-10.259 4.976-18.863l-1.988-.22c-.934 8.445-1.98 12.41-4.788 18.212l1.8.87zm-2.003.697a1.5 1.5 0 0 0 2.003-.697l-1.8-.871a.5.5 0 0 1 .668-.233l-.871 1.8zm-.697-2.004a1.5 1.5 0 0 0 .697 2.004l.87-1.8a.5.5 0 0 1 .233.667l-1.8-.87z" fill="#333" mask="url(#b)"></path><mask id="c" fill="#fff"><path fill-rule="evenodd" clip-rule="evenodd" d="M54.642 47.088c-1.317-2.48-2.088-5.442-2.646-9.654a.5.5 0 1 0-.992.132c.565 4.261 1.357 7.357 2.754 9.99 1.4 2.638 3.386 4.772 6.274 7.144a.5.5 0 1 0 .635-.773c-2.835-2.328-4.712-4.364-6.026-6.84z"></path></mask><path fill-rule="evenodd" clip-rule="evenodd" d="M54.642 47.088c-1.317-2.48-2.088-5.442-2.646-9.654a.5.5 0 1 0-.992.132c.565 4.261 1.357 7.357 2.754 9.99 1.4 2.638 3.386 4.772 6.274 7.144a.5.5 0 1 0 .635-.773c-2.835-2.328-4.712-4.364-6.026-6.84z" fill="#333"></path><path d="M51.996 37.434l-.992.132.992-.132zm2.645 9.654l.884-.47-.883.47zm-3.207-10.084l-.131-.99.131.99zm-.43.562l.992-.132-.992.132zm2.754 9.99l-.883.469.883-.469zm6.274 7.144l-.635.773.635-.773zm.704-.07l-.773-.634.773.635zm-.07-.703l.635-.773-.634.773zm-9.662-16.361c.565 4.261 1.357 7.357 2.754 9.99l1.767-.937c-1.235-2.328-1.986-5.154-2.538-9.316l-1.983.263zm.562.43a.5.5 0 0 1-.562-.43l1.983-.263a1.5 1.5 0 0 0-1.684-1.29l.263 1.983zm.43-.562a.5.5 0 0 1-.43.562l-.263-1.983a1.5 1.5 0 0 0-1.29 1.684l1.983-.263zm2.645 9.654c-1.316-2.48-2.087-5.442-2.645-9.654l-1.983.263c.571 4.311 1.384 7.543 2.862 10.328l1.767-.937zm6.026 6.84c-2.835-2.329-4.712-4.365-6.026-6.84l-1.766.937c1.485 2.8 3.58 5.032 6.522 7.448l1.27-1.546zm-.704.068a.5.5 0 0 1 .704-.069l-1.27 1.546a1.5 1.5 0 0 0 2.111-.207l-1.545-1.27zm.069.704a.5.5 0 0 1-.07-.704l1.546 1.27a1.5 1.5 0 0 0-.207-2.112l-1.27 1.546zm-6.274-7.144c1.4 2.638 3.386 4.772 6.274 7.144l1.27-1.546c-2.782-2.284-4.55-4.221-5.777-6.535l-1.767.937z" fill="#333" mask="url(#c)"></path><mask id="d" fill="#fff"><path fill-rule="evenodd" clip-rule="evenodd" d="M46.785 55.657c-2.807-5.803-3.853-9.767-4.788-18.212a.5.5 0 0 0-.994.11c.944 8.525 2.013 12.606 4.882 18.537a.5.5 0 0 0 .9-.435z"></path></mask><path fill-rule="evenodd" clip-rule="evenodd" d="M46.785 55.657c-2.807-5.803-3.853-9.767-4.788-18.212a.5.5 0 0 0-.994.11c.944 8.525 2.013 12.606 4.882 18.537a.5.5 0 0 0 .9-.435z" fill="#333"></path><path d="M41.997 37.445l.994-.11-.994.11zm4.788 18.212l-.9.435.9-.435zm-5.34-18.654l-.11-.994.11.994zm-.442.552l-.994.11.994-.11zm4.882 18.537l.9-.435-.9.435zm.668.233l.436.9-.436-.9zm-5.55-18.77c.944 8.525 2.013 12.606 4.882 18.537l1.8-.87c-2.744-5.675-3.768-9.522-4.694-17.887l-1.988.22zm.552.442a.5.5 0 0 1-.552-.442l1.988-.22a1.5 1.5 0 0 0-1.656-1.326l.22 1.988zm.442-.552a.5.5 0 0 1-.442.552l-.22-1.988a1.5 1.5 0 0 0-1.326 1.656l1.988-.22zm4.788 18.212c-2.807-5.803-3.853-9.767-4.788-18.212l-1.988.22c.952 8.604 2.045 12.803 4.976 18.863l1.8-.871zm-.667-.233a.5.5 0 0 1 .667.233l-1.8.87a1.5 1.5 0 0 0 2.004.698l-.871-1.8zm-.233.668a.5.5 0 0 1 .233-.668l.87 1.8a1.5 1.5 0 0 0 .698-2.003l-1.8.871z" fill="#333" mask="url(#d)"></path><mask id="e" fill="#fff"><path fill-rule="evenodd" clip-rule="evenodd" d="M33.5 37a.5.5 0 0 1 .5.5v18a.5.5 0 0 1-1 0v-18a.5.5 0 0 1 .5-.5z"></path></mask><path fill-rule="evenodd" clip-rule="evenodd" d="M33.5 37a.5.5 0 0 1 .5.5v18a.5.5 0 0 1-1 0v-18a.5.5 0 0 1 .5-.5z" fill="#333"></path><path d="M35 37.5a1.5 1.5 0 0 0-1.5-1.5v2a.5.5 0 0 1-.5-.5h2zm0 18v-18h-2v18h2zM33.5 57a1.5 1.5 0 0 0 1.5-1.5h-2a.5.5 0 0 1 .5-.5v2zM32 55.5a1.5 1.5 0 0 0 1.5 1.5v-2a.5.5 0 0 1 .5.5h-2zm0-18v18h2v-18h-2zm1.5-1.5a1.5 1.5 0 0 0-1.5 1.5h2a.5.5 0 0 1-.5.5v-2z" fill="#333" mask="url(#e)"></path></svg> 