<?xml version="1.0" encoding="UTF-8"?> <svg xmlns="http://www.w3.org/2000/svg" width="65" height="65" viewBox="0 0 65 65" fill="none"><path d="M11.16 65l-.84-.07c0-.14 3.61-17.124 2.49-26.573-.77-6.09-1.12-12.46-1.12-18.829v-.28c0-1.82.84-3.01 2.31-5.25l.56-.77c2.029-2.939 3.919-4.129 6.088-3.639.42 0 1.12.35 1.19 1.54 0 .63.35 1.82.63 2.94.21.84.42 1.61.49 2.17l.07.28c.21 1.33.49 3.01.42 5.949 0 1.47 0 2.31-.21 2.59l-.77-.42c.07-.14.07-1.26.07-2.17.07-2.94-.21-4.55-.42-5.81l-.07-.28c-.07-.56-.28-1.33-.49-2.1-.28-1.19-.56-2.38-.63-3.149-.07-.7-.35-.77-.35-.77h-.14c-1.12-.28-2.94-.21-5.249 3.29l-.56.77c-1.47 2.17-2.17 3.22-2.17 4.76v.28c0 6.369.35 12.668 1.12 18.758C14.77 47.806 11.16 64.86 11.16 65z" fill="#333"></path><path d="M21.698 27.707c-1.4 0-2.1-.789-2.31-1.534 0-.044-.28-1.227.56-1.84.35-.263.77-.395 1.33-.439h.07c.35 0 .7.088.98.263.77.482.84 1.534.77 1.665 0 .307.07 1.797-1.33 1.885h-.07zm-.28-3.243c-.35 0-.56.088-.77.22-.49.393-.42 1.182-.35 1.445.07.263.42 1.14 1.54 1.096.42-.044.56-.79.56-1.315 0-.263-.07-1.008-.56-1.315-.14-.131-.28-.131-.42-.131z" fill="#333"></path><path d="M20.16 27.367c-1.89-.14-2.45-3.57-2.59-4.27-.14-1.119-.77-3.569-1.05-4.689-.35-1.26-.91-4.34-.98-4.41l.84-.14s.63 3.15.91 4.41c.35 1.26.91 3.64 1.05 4.83.21 1.33.84 3.5 1.82 3.57v.7z" fill="#333"></path><path d="M17.29 20.368c-2.17-.21-2.87-.7-2.94-.84l.56-.63-.28.28.28-.35s.56.42 2.45.63l-.07.91z" fill="#333"></path><path d="M29.538 27.368c-.84-.35-1.4-1.19-1.68-1.89-.14-.42-.14-1.54-.14-2.94v-.77c0-.21 0-.56-.07-.98a92.87 92.87 0 0 1-.14-3.71c0-.42-.07-1.82-.07-3.29-.07-1.189-.14-2.449-.14-3.429-.07-2.17-.21-2.94-1.19-3.36-1.12-.56-2.87-.21-4.06.84-1.12.98-.91 2.03-.91 2.1l-.84.21c0-.07-.35-1.61 1.19-2.87 1.47-1.19 3.5-1.61 4.97-.91 1.54.7 1.61 2.03 1.68 4.13 0 .91.07 2.17.14 3.43.07 1.54.14 2.87.07 3.36 0 .63.07 2.52.14 3.64 0 .42 0 .77.07.98v.77c0 .769 0 2.379.14 2.659.14.42.63 1.12 1.19 1.4l-.35.63z" fill="#333"></path><path d="M26.878 29.03h-.14c-2.1-.05-2.38-1.321-2.73-3.405 0-.711.49-2.033 2.24-2.134 1.82-.102 2.31 1.321 2.31 2.083.07.204.42 2.236-.56 3.05-.28.254-.63.355-.98.355 0 .051-.07.051-.14.051zm-.42-4.879h-.14c-1.4.102-1.47 1.423-1.47 1.474.35 2.287.7 2.795 1.89 2.795H26.948c.14 0 .28-.05.42-.152.56-.458.49-1.83.35-2.592.07-.05 0-1.525-1.26-1.525z" fill="#333"></path><path d="M25.128 28.698c-2.17 0-2.59-4.83-2.66-5.81l.84-.07c.14 2.03.84 5.04 1.82 5.04v.84z" fill="#333"></path><path d="M28.489 28.278l-.56-.63s.49-.49.56-1.33l.84.07c-.14 1.19-.84 1.82-.84 1.89z" fill="#333"></path><path d="M31.359 27.707c-.63 0-1.19-.14-1.61-.421-.98-.702-1.05-1.965-.98-3.274.07-1.216 1.47-1.544 2.31-1.544 2.45.094 2.52 1.544 2.52 2.011v.234c.07.655.14 1.918-.77 2.573-.35.28-.84.42-1.47.42.07 0 0 0 0 0zm-.21-4.63c-.21 0-1.4.046-1.4.981-.07.655-.14 2.246.7 2.854.28.187.56.28.98.28v.28-.28c.35 0 .63-.093.84-.234.7-.467.56-1.59.56-2.151v-.234c-.07-.795-.28-1.45-1.68-1.497z" fill="#333"></path><path d="M33.317 26.808l-.42-.77c.42-.28.77-1.19.77-2.17 0-.28 0-.7-.07-1.26-.07-1.4-.14-3.43-.07-4.55 0-.63 0-1.19-.07-1.89-.07-1.05-.14-2.31-.07-3.989.21-3.15.07-5.46-.21-5.88-.28-.49-1.61-1.19-3.36-.77-1.68.42-2.17 1.96-2.17 2.03l-.84-.21c0-.07.63-2.1 2.8-2.59 2.1-.49 3.78.35 4.27 1.19.56.84.49 3.99.35 6.44-.14 1.68-.07 2.87.07 3.92.07.7.07 1.33.07 1.96-.07 1.12.07 3.15.07 4.479 0 .56.07.98.07 1.26 0 .91-.28 2.31-1.19 2.8z" fill="#333"></path><path d="M36.678 23.251c-2.17 0-2.45-1.696-2.45-2.98 0-1.466 1.54-1.878 2.45-1.878h.07c.35 0 2.17.091 2.17 1.97 0 1.192-.21 2.842-2.24 2.888zm0-4.308c-.28 0-1.61.045-1.61 1.329 0 2.43 1.12 2.43 1.61 2.43v.274-.275c.42 0 1.4 0 1.4-2.338 0-1.283-1.05-1.375-1.33-1.375 0-.045-.07-.045-.07-.045z" fill="#333"></path><path d="M34.857 22.468c-.84-.35-1.26-1.68-1.33-1.82l.84-.21c.07.35.42 1.12.84 1.26l-.35.77z" fill="#333"></path><path d="M38.288 22.678l-.35-.77c.49-.21 1.19-1.26 1.4-3.5.07-.84.14-1.82.21-2.8.14-1.54.28-3.15.35-4.339 0-.35.07-.77.07-1.12.14-1.54.21-2.94-.56-4.2-.84-1.33-2.45-1.4-4.06-1.19-.77.07-1.19 1.54-1.26 2.1l-.84-.14c.07-.28.42-2.59 2.03-2.8 1.19-.14 3.64-.42 4.83 1.61.91 1.47.77 3.15.63 4.76 0 .35-.07.77-.07 1.12-.07 1.19-.21 2.8-.35 4.41-.07.98-.21 1.96-.21 2.8-.07 1.96-.84 3.64-1.82 4.059z" fill="#333"></path><path d="M43.187 5.6c-.56 0-1.05-.49-1.75-1.577-.91-1.468-1.4-2.718-1.33-3.48 0-.434.35-.543.56-.543.14 0 .35.054.49.163.42.272 1.05.924 1.4 1.522 1.26 2.284 1.54 3.534.91 3.86-.07.055-.14.055-.28.055zM41.017.979c.07.543.42 1.413 1.26 2.826.35.544.56.816.7.98-.14-.545-.63-1.74-1.19-2.774-.21-.434-.56-.815-.77-1.032z" fill="#333"></path><path d="M37.797 4.48c0-.07-.42-2.03.56-3.36.49-.7 1.26-1.05 2.31-1.12l.07.84c-.77.07-1.33.28-1.68.77-.77.98-.42 2.66-.42 2.66l-.84.21z" fill="#333"></path><path d="M35.488 63.007c0-.63-2.514-15.566-1.744-20.255.56-3.5.764-4.605 2.024-5.865.49-.49.98-.98 1.54-1.68 1.26-1.68 2.03-3.57 2.8-5.25.35-.91.7-1.75 1.12-2.52 1.12-2.17 2.379-6.159 2.729-8.749.21-1.4.42-2.66.63-3.92.21-1.26.42-2.449.56-3.709.28-2.1-.42-3.15-.77-3.71-.49-.77-1.33-2.1-1.33-2.1l.7-.49s.91 1.33 1.33 2.03c.35.63 1.19 1.89.91 4.27-.14 1.26-.42 2.52-.63 3.71-.21 1.26-.42 2.52-.63 3.85-.35 2.66-1.61 6.789-2.8 9.029-.35.7-.7 1.54-1.12 2.45-.7 1.75-1.54 3.709-2.87 5.459-.56.77-1.12 1.33-1.61 1.82-1.19 1.19-1.253 2.155-1.743 5.375-.77 4.55 1.744 19.905 1.744 20.115l-.84.14z" fill="#333"></path><path d="M48.685 49.796a.616.616 0 0 1-.403-.162.616.616 0 0 1-.162-.403v-.081c0-1.696-.323-16.795-10.9-16.795a.637.637 0 0 1-.647-.646c0-.323.242-.646.646-.646 10.578 0 10.901-15.342 10.901-17.038v-.162c0-.242.162-.484.404-.565.242-.08.484-.08.646.162.08.08.161.323.161.484 0 1.777.323 17.038 10.901 17.038.323 0 .646.242.646.646a.637.637 0 0 1-.646.646c-10.578 0-10.9 15.1-10.9 16.876v.08a.607.607 0 0 1-.404.566h-.243z" fill="#FFF4F2"></path><path d="M48.685 49.796a.616.616 0 0 1-.403-.162.616.616 0 0 1-.162-.403v-.081c0-1.696-.323-16.795-10.9-16.795a.637.637 0 0 1-.647-.646c0-.323.242-.646.646-.646 10.578 0 10.901-15.342 10.901-17.038v-.162c0-.242.162-.484.404-.565.242-.08.484-.08.646.162.08.08.161.323.161.484 0 1.777.323 17.038 10.901 17.038.323 0 .646.242.646.646a.637.637 0 0 1-.646.646c-10.578 0-10.9 15.1-10.9 16.876v.08a.607.607 0 0 1-.404.566h-.243zm-7.832-18.168c4.925 1.776 6.944 7.186 7.832 11.547.889-4.36 2.907-9.69 7.833-11.547C51.592 29.85 49.574 24.36 48.685 20c-.888 4.36-2.907 9.77-7.832 11.628z" fill="#333"></path><path d="M11.066 52.963a.637.637 0 0 1-.646-.646v-.161c0-.808-.161-5.249-2.422-7.429-.888-.888-1.938-1.292-3.23-1.292a.637.637 0 0 1-.646-.646c0-.404.242-.646.646-.646 1.292 0 2.342-.404 3.23-1.292 2.342-2.341 2.422-7.106 2.422-7.67 0-.243.162-.485.404-.566.242-.08.485-.08.646.161.08.081.162.243.162.404v.162c0 .888.161 5.329 2.422 7.59.888.888 1.938 1.292 3.15 1.292.322 0 .645.242.645.646s-.242.646-.646.646c-1.292 0-2.342.404-3.23 1.292-2.422 2.422-2.341 7.51-2.341 7.59 0 .242-.081.404-.243.565-.08-.08-.161 0-.323 0z" fill="#FFF4F2"></path><path d="M11.066 52.963a.637.637 0 0 1-.646-.646v-.161c0-.808-.161-5.249-2.422-7.429-.888-.888-1.938-1.292-3.23-1.292a.637.637 0 0 1-.646-.646c0-.404.242-.646.646-.646 1.292 0 2.342-.404 3.23-1.292 2.342-2.341 2.422-7.106 2.422-7.67 0-.243.162-.485.404-.566.242-.08.485-.08.646.161.08.081.162.243.162.404v.162c0 .888.161 5.329 2.422 7.59.888.888 1.938 1.292 3.15 1.292.322 0 .645.242.645.646s-.242.646-.646.646c-1.292 0-2.342.404-3.23 1.292-2.422 2.422-2.341 7.51-2.341 7.59 0 .242-.081.404-.243.565-.08-.08-.161 0-.323 0zM7.513 42.79c.485.242.97.646 1.454 1.05 1.05 1.05 1.696 2.584 2.1 3.956.403-1.372 1.049-2.907 2.099-3.956.403-.404.888-.808 1.453-1.05-.484-.242-.969-.646-1.373-1.05-1.05-1.13-1.776-2.584-2.18-4.037-.403 1.453-1.05 2.907-2.18 4.037-.404.485-.888.808-1.373 1.05z" fill="#333"></path></svg> 