<?xml version="1.0" encoding="UTF-8"?> <svg xmlns="http://www.w3.org/2000/svg" width="65" height="65" viewBox="0 0 65 65" fill="none"><path d="M.282 38.161c.07-.07 6.838-3.736 11.843-6.274 5.076-2.537 11.138-5.71 13.112-6.908 1.34-.775 2.397-1.057 4.23-1.41.846-.211 1.762-.352 2.96-.705.776-.211 1.41-.352 1.974-.564 2.185-.634 3.172-.916 6.838-.211 1.058.211 1.974.352 2.75.564 2.114.423 3.595.705 3.806.846l-.14-.141.845-.282c-.141-.423-.493-.494-4.37-1.27-.776-.14-1.693-.352-2.75-.563-3.877-.776-5.005-.423-7.26.211-.565.141-1.2.353-1.904.564-1.128.282-2.044.494-2.89.705-1.833.423-3.032.635-4.442 1.551-1.973 1.198-7.965 4.3-13.04 6.838C6.837 33.65.07 37.386 0 37.386l.282.775z" fill="#333"></path><path d="M48.57 25.613c1.692 0 2.045-.846 2.186-1.198v-.282c0-.987-2.185-1.34-3.454-1.48h-.353c-1.34 0-1.41.916-1.41.916-.07.916.564 1.622 1.692 1.833.423.141.917.211 1.34.211z" fill="#FFF4F2"></path><path d="M48.57 25.613c1.692 0 2.045-.846 2.186-1.198v-.282c0-.987-2.185-1.34-3.454-1.48h-.353c-1.34 0-1.41.916-1.41.916-.07.916.564 1.622 1.692 1.833.423.141.917.211 1.34.211zm1.34-1.41c-.07.282-.423.564-1.34.564-.352 0-.775-.07-1.268-.14-.494-.071-1.058-.353-.987-.917 0 0 .211-.211.846-.14 1.48.07 2.467.422 2.749.634z" fill="#333"></path><path d="M50.544 30.689l.141-.282.423-.352c-.07-.07-.211-.212-1.127-.494-.282-.07-.917-.282-1.833-.564-2.186-.634-5.428-1.621-6.909-2.115-2.256-.775-3.806-.987-4.511-.987-.705 0-5.287.212-5.499.212l.07.846c.071 0 4.794-.212 5.429-.212.634 0 2.185.282 4.23.917 1.48.493 4.793 1.48 6.978 2.115.917.282 1.551.493 1.833.564.635.282.776.352.776.352z" fill="#333"></path><path d="M50.684 33.086c1.199 0 1.974-.564 2.186-1.128.07-.212.14-.423.14-.635-.07-.986-1.41-1.268-3.171-1.55l-.423-.07c-.776-.142-1.34-.071-1.692.352a1.36 1.36 0 0 0-.353.775c-.07.423.07.846.353 1.198.423.564 1.269.917 2.467 1.058h.493z" fill="#FFF4F2"></path><path d="M50.684 33.086c1.199 0 1.974-.564 2.186-1.128.07-.212.14-.423.14-.635-.07-.986-1.41-1.268-3.171-1.55l-.423-.07c-.776-.142-1.34-.071-1.692.352a1.36 1.36 0 0 0-.353.775c-.07.423.07.846.353 1.198.423.564 1.269.917 2.467 1.058h.493zm-1.903-2.608c.141 0 .282 0 .423.07l.423.07c.846.142 2.397.494 2.467.776 0 .07 0 .14-.07.211-.141.353-.776.776-1.833.635-.916-.141-1.621-.353-1.903-.776-.141-.14-.141-.352-.141-.563v-.071c.07-.141.14-.352.634-.352z" fill="#333"></path><path d="M48.358 34.002s-.07-.07-.07-.14l.846-.212c-.141-.494-.705-.564-2.538-.776-1.34-.14-6.415-1.128-7.895-1.621-1.692-.634-3.102-.916-3.736-.987-.705-.07-4.23-.14-4.442-.14v.845c1.27 0 3.737.07 4.3.141.635.07 2.045.423 3.596.916 1.55.564 6.697 1.551 8.107 1.692.704.07 1.691.212 1.832.282z" fill="#333"></path><path d="M48.077 36.4c2.044 0 2.608-.847 2.749-1.34.07-.212.07-.353.07-.564-.14-.987-1.973-1.199-3.736-1.34h-.211c-.635-.07-1.128.07-1.41.423-.352.353-.352.846-.352.846 0 .07 0 .635.422 1.128.423.494 1.128.776 2.045.846h.423z" fill="#FFF4F2"></path><path d="M48.077 36.4c2.044 0 2.608-.847 2.749-1.34.07-.212.07-.353.07-.564-.14-.987-1.973-1.199-3.736-1.34h-.211c-.635-.07-1.128.07-1.41.423-.352.353-.352.846-.352.846 0 .07 0 .635.422 1.128.423.494 1.128.776 2.045.846h.423zm-1.41-2.398h.423c.846.07 2.75.282 2.96.635v.211c-.14.494-.986.776-2.326.705-.705 0-1.198-.211-1.48-.564-.212-.211-.212-.423-.212-.564 0-.14.07-.423.635-.423z" fill="#333"></path><path d="M49.346 34.284c.846 0 2.185-.352 2.608-1.55l-.846-.283c-.352 1.128-1.974.987-2.044.987l-.07.846c.07-.07.21 0 .352 0z" fill="#333"></path><path d="M44.764 33.438l.212-.846s-3.173-.846-4.441-1.198c-1.34-.352-3.243-.634-3.314-.634l-.14.845s1.973.282 3.242.635c1.34.352 4.441 1.198 4.441 1.198z" fill="#333"></path><path d="M43.001 39.571s0-.07 0 0l.776-.282c-.141-.493-.705-.705-1.551-.916-.141 0-.423-.07-.846-.141-1.34-.282-3.807-.705-5.71-1.34-2.538-.846-4.512-1.127-4.582-1.198-1.058-.14-1.551-.282-1.833-.423.353-.07 1.057-.07 1.692 0 .07 0 3.172.282 6.556.987l2.115.423c2.467.494 4.511.987 6.555 1.057 2.468.141 3.243-1.127 3.525-1.832l-.775-.282c-.282.916-1.27 1.339-2.679 1.268-1.974-.07-4.089-.564-6.485-1.057-.705-.14-1.34-.282-2.115-.423-3.384-.705-6.627-.987-6.627-.987-2.537-.282-2.749.353-2.82.494-.07.211-.07.423.071.634.282.423.987.705 2.608.916 0 0 1.974.282 4.442 1.128 1.973.705 4.511 1.128 5.85 1.41.353.07.635.141.776.141.846.212 1.057.353 1.057.423z" fill="#333"></path><path d="M42.438 41.615c.493 0 2.044 0 2.185-1.198v-.352c-.07-1.058-1.692-1.27-3.172-1.34h-.212c-1.057 0-1.48.705-1.48 1.199-.07.352.07.705.352.987.282.282.776.704 1.833.704h.494z" fill="#FFF4F2"></path><path d="M42.438 41.615c.493 0 2.044 0 2.185-1.198v-.352c-.07-1.058-1.692-1.27-3.172-1.34h-.212c-1.057 0-1.48.705-1.48 1.199-.07.352.07.705.352.987.282.282.776.704 1.833.704h.494zm-1.199-2.114h.141c2.327.14 2.397.493 2.397.564v.14c0 .142-.07.494-1.34.494h-.422c-.564 0-1.058-.211-1.27-.423-.14-.14-.14-.282-.14-.352.07-.141.14-.423.634-.423z" fill="#333"></path><path d="M6.908 49.793s.846-.987 3.525-3.454c2.044-1.904 4.723-2.256 6.485-2.468.423-.07.846-.07 1.128-.14.776-.142 2.82-.917 4.864-1.552 1.833-.634 3.878-1.339 4.23-1.41.776-.07 3.877.353 5.287.565.212 0 .494.07.916.14 1.904.353 5.922 1.058 7.896 1.129 2.679.07 2.82-1.48 2.82-1.551l-.846-.07h.423l-.423-.071s-.141.846-1.974.775c-1.903-.07-5.851-.775-7.755-1.057-.422-.07-.704-.141-.916-.141-.07 0-4.441-.705-5.569-.564-.423.07-1.974.564-4.441 1.41-1.974.705-4.018 1.41-4.723 1.55-.282.071-.635.071-1.058.142-1.762.21-4.723.563-6.978 2.678-2.68 2.468-3.525 3.454-3.596 3.525l.705.564z" fill="#333"></path><path d="M49.205 23.146c.564 0 1.199-.14 2.256-.634 1.903-.846 2.679-2.186 3.525-3.525.352-.564.916-1.128 1.41-1.692.634-.705 1.268-1.34 1.48-1.974.282-.987 3.666-6.626 4.934-7.26 0 0 .071 0 .071-.071.07 0 .423-.353 1.057 0l.423-.705c-.987-.564-1.762-.141-1.974 0-1.691.916-5.005 6.697-5.357 7.754-.141.494-.705 1.058-1.269 1.622-.564.564-1.128 1.198-1.48 1.833-.776 1.268-1.48 2.396-3.172 3.172-1.622.775-2.115.634-3.032.282-.493-.141-.634-.282-.634-.282 0-.07.07-.423.14-.494.212-.634 1.129-1.762 1.904-2.608a9.31 9.31 0 0 0 .705-.775c1.198-1.27 3.172-3.314 3.595-4.019.705-.986.564-2.678.282-3.313-.282-.775-1.198-1.198-1.833-1.057-.705.211-3.172 2.256-3.665 2.679-1.551 1.339-5.499 5.287-6.627 6.485-1.269 1.269-1.903 2.608-1.974 2.679l.776.352s.634-1.269 1.762-2.467c1.34-1.41 5.146-5.146 6.627-6.415 1.833-1.55 3.03-2.397 3.313-2.467.211-.07.705.14.846.564.14.493.282 1.833-.212 2.537-.423.635-2.467 2.75-3.524 3.878l-.776.775c-.493.564-1.762 1.974-2.044 2.96-.353 1.058-.141 1.481 1.057 1.834.494.282.917.352 1.41.352z" fill="#333"></path><path d="M50.545 11.726c.422-.423 1.55-1.48 1.832-1.762l.07-.07c.424-.353.635-.424.847-.353.07.07.14.564 0 1.057l.846.212c.07-.282.423-1.622-.423-2.045-.776-.423-1.41.141-1.833.423l-.07.07c-.353.283-1.833 1.763-1.904 1.834l.635.634z" fill="#333"></path><path d="M52.73 10.175c.21-.282.563-.564.634-.564l.564-.634a1.137 1.137 0 0 0-.635-.212c-.634.07-1.128.776-1.269.917l.705.493z" fill="#333"></path><path d="M12.548 52.049c.07-.07 7.966-4.089 15.579-11.42l-.564-.635c-7.543 7.261-15.297 11.209-15.368 11.209l.353.846z" fill="#333"></path><path d="M27.634 57.547c.14-.14 11.913-11.702 13.816-13.182 1.904-1.48 2.397-1.833 4.512-2.326 2.185-.494 7.825-2.75 9.446-3.807 1.622-1.057 2.75-2.538 3.877-5.005l.07-.141c1.058-2.326 1.41-3.102 1.552-5.358.07-1.34.211-2.749.352-3.877.07-.916.141-1.34.141-1.48 0-.353-.14-.494-.211-.564 0-.282 0-1.34.14-1.622.071-.14.142-.211.212-.352.212-.282.423-.634.494-1.128.07-.564-.282-.705-.353-.705-.493-.14-.846.494-.916.634l.423.142c-.07.211-.212.422-.282.634-.07.141-.212.282-.282.423-.282.564-.282 1.974-.282 2.044 0 .282.14.423.211.494v.07c0 .141-.07.705-.14 1.41a52.589 52.589 0 0 0-.353 3.877c-.141 2.115-.494 2.82-1.48 5.076l-.071.14c-1.057 2.398-2.115 3.666-3.595 4.653-1.551.987-7.12 3.243-9.164 3.737-2.256.493-2.89.986-4.864 2.467-1.974 1.48-13.465 12.76-13.888 13.253l.635.493z" fill="#333"></path><path d="M61.4 22.37c.494-.845.846-2.89.917-3.172.14-.775-.353-1.127-.423-1.198l-.212.353-.282.352s.07.07.07.353c-.07.422-.422 2.185-.775 2.89l.705.423z" fill="#333"></path><path d="M55.408 30.971l.846-.141c-.141-.634-.07-1.692.494-2.608.916-1.551 1.48-3.596 1.691-6.133.141-1.48.564-2.538 1.199-3.031.352-.282.705-.282.846-.212.493.07.564.423.564.494l.846-.142a1.613 1.613 0 0 0-1.27-1.268c-.493-.07-1.057 0-1.48.352-.564.423-1.34 1.41-1.55 3.595-.212 2.397-.776 4.37-1.622 5.78-.634 1.2-.705 2.538-.564 3.314z" fill="#333"></path><path d="M60.625 29.843c.07-.14 2.608-2.82 3.102-3.454.563-.776.775-1.55.775-4.582v-2.96-1.975c0-.493 0-.846-.493-1.128-.142-.352-.142-1.621-.071-1.832 0-.071.423-1.692.141-2.186-.141-.211-.352-.352-.564-.352-.423 0-.846.423-1.057.987l.775.282c0-.07.07-.141.07-.141-.07.423-.14.986-.21 1.127-.071.142-.212 2.538.422 2.82.07 0 .07.07.07.07v5.287c0 3.032-.21 3.525-.634 4.019-.493.634-3.031 3.313-3.031 3.384l.705.634z" fill="#333"></path><path d="M64.432 16.45c0-.071.282-.988.282-2.398 0-1.41 0-2.396-.917-2.608l-.211.846c.212.07.211.917.211 1.762 0 1.27-.211 2.115-.211 2.115l.846.282z" fill="#333"></path><path d="M59.286 18.423h.846s0-2.256.352-3.666c.353-1.41 1.198-1.762 1.833-1.832.634 0 .916.634.916.704l.776-.352c0-.07-.564-1.198-1.763-1.198-1.269.07-2.185.986-2.608 2.467-.352 1.55-.352 3.807-.352 3.877z" fill="#333"></path><path d="M56.677 23.78s1.833-3.313 2.538-4.229c.705-1.057.987-2.185.987-2.256l-.846-.211s-.211 1.057-.846 1.974c-.705.986-2.467 4.159-2.538 4.3l.705.423z" fill="#333"></path><path d="M60.696 14.123c.07-.916.282-3.454.846-4.37a1.642 1.642 0 0 1 1.41-.847c.352 0 .563.141.634.353l.775-.353c-.211-.564-.705-.846-1.41-.916-.705-.07-1.691.211-2.255 1.269-.776 1.269-.917 4.652-.917 4.793l.917.071z" fill="#333"></path><path d="M64.15 11.938c.07-.917.14-2.045.14-2.256.283-1.128.353-1.833.142-2.185-.141-.141-.282-.212-.423-.212-.141 0-.494 0-1.058.987l.705.423c-.07.211-.07.493-.14.705-.142.352-.212 2.115-.212 2.397l.846.14z" fill="#333"></path><path d="M64.573 12.643c.211-.846.352-2.961.423-3.807.07-1.199-.706-1.41-.776-1.48l-.211.845h-.07c.07 0 .14.212.14.635 0 .916-.14 2.89-.352 3.595l.846.212z" fill="#333"></path><path d="M46.526 26.953c.494 0 .917 0 1.27-.141 1.339-.282 1.832-1.199 1.832-1.763l-.846-.07c0 .141-.211.775-1.198.987-.987.211-3.314-.07-4.583-.282-1.127-.212-3.454-.494-4.3-.353-.775.071-3.172.494-3.313.564l.141.846s2.467-.423 3.243-.564c.705-.07 2.82.141 4.089.353.705.211 2.326.423 3.665.423z" fill="#333"></path></svg> 