<?xml version="1.0" encoding="UTF-8"?> <svg xmlns="http://www.w3.org/2000/svg" width="65" height="65" viewBox="0 0 65 65" fill="none"><path d="M4 30.5L2 31l-.5-1 2-1 .5 1.5z" fill="#FFF4F2"></path><path d="M8.485 24.504C6.929 24.944 5.452 25.36 5 24v-1c.453-.514.689-.808 2-1 1.723.348 1.63 1.129 1.5 2.5l-.015.004z" fill="#FFF4F2"></path><path d="M12.485 18.504c-1.556.44-3.033.855-3.485-.504v-1c.453-.514.689-.808 2-1 1.723.348 1.63 1.129 1.5 2.5l-.015.004z" fill="#FFF4F2"></path><path d="M17.485 14.504c-1.556.44-3.033.855-3.485-.504v-1c.453-.514.689-.309 2-.5 1.723.348 1.63.629 1.5 2l-.015.004z" fill="#FFF4F2"></path><path d="M28 19c-1.398 1.012-3.953 1.69-4.5 0l-.5-4c.453-.514 2.689-.809 4-1 .5 1.5 1 4 1 5z" fill="#FFF4F2"></path><path d="M61 30.5l2 .5 1-.5c-.432-1.198-1.422-1.9-2.5-1.5l-.5 1.5z" fill="#FFF4F2"></path><path d="M56.5 24.5c1.562.44 2.5.5 3.5 0V23c-.453-.514-1.189-.808-2.5-1-1.723.348-1.13 1.129-1 2.5z" fill="#FFF4F2"></path><path d="M52.5 18.5c1.5 0 2 .5 3 0l.5-1c-.453-.514-1.189-1.308-2.5-1.5-1.723.348-1.13 1.129-1 2.5z" fill="#FFF4F2"></path><path d="M47.5 14.5c1.562.44 2.609 1.364 3.063 0L51 13c-.453-.514-1.189-.309-2.5-.5-1.723.348-1.13.629-1 2z" fill="#FFF4F2"></path><path d="M37 19c1.398 1.012 3.953 1.69 4.5 0l.5-4c-.453-.514-2.689-.809-4-1-.5 1.5-1 4-1 5z" fill="#FFF4F2"></path><path d="M1.143 53.785c-.747-4.14-.68-7.873-.68-10.792 0-1.697 0-3.122-.067-4.344 0-.34-.068-.746-.136-1.086-.34-3.393-.746-7.262 1.63-8.552.203-.136.814-.543 1.9-.271l-.204.814c-.815-.203-1.222.136-1.222.136l-.068.068c-1.9.95-1.56 4.547-1.221 7.738.068.339.068.746.135 1.085.136 1.29.136 2.715.068 4.412 0 2.919-.068 6.584.679 10.656l-.814.136z" fill="#333"></path><path d="M4.875 37.563c-.068-.339-2.036-9.095-1.29-12.692.34-1.9 1.29-2.647 2.037-2.986 1.154-.476 2.511-.204 3.326.271l-.475.679c-.475-.34-1.561-.611-2.512-.204-.814.34-1.357 1.154-1.56 2.376C3.72 28.468 5.69 37.292 5.69 37.36l-.815.203z" fill="#333"></path><path d="M9.762 32.405c-.067-.543-1.629-12.692-1.56-14.05.067-.95.542-1.697 1.357-2.172 1.154-.678 2.647-.678 4.004 0l-.339.747c-1.086-.543-2.376-.543-3.258-.068-.61.34-.95.882-.95 1.561-.068 1.018 1.018 9.57 1.56 13.914l-.814.068z" fill="#333"></path><path d="M32.092 53.717v-8.28c0-4.752.068-8.824-.135-10.113a81.553 81.553 0 0 0-.204-1.494c-.34-2.579-.61-5.022-.814-9.502-.136-2.511-.68-8.688-3.462-10.656-.95-.679-1.968-.815-3.258-.407-4.208 1.221-2.85 7.398-2.036 11.063.204.814.34 1.561.407 2.036.204 1.833.068 2.85-.61 3.055-.408.135-.815-.068-1.087-.611-.475-.747-.882-3.937-1.629-9.163-.135-.883-.203-1.765-.339-2.58-.271-2.036-.815-3.325-1.561-3.868-.679-.475-1.493-.407-2.172-.272a1.56 1.56 0 0 0-1.222.815c-.475.678-.543 1.832-.203 3.054.543 2.036 2.104 11.47 2.171 11.878l-.814.136c0-.068-1.629-9.774-2.104-11.742-.407-1.426-.271-2.783.271-3.733a2.65 2.65 0 0 1 1.765-1.154c.815-.136 1.9-.272 2.783.407.95.679 1.629 2.172 1.9 4.412.136.814.204 1.697.34 2.647.475 3.665 1.086 8.145 1.493 8.823.068.068.068.136.136.136.068-.204.203-.746 0-2.104a20.61 20.61 0 0 0-.407-1.968c-.883-3.937-2.308-10.589 2.579-12.014 1.493-.475 2.85-.271 4.004.543 3.122 2.24 3.733 8.688 3.801 11.335.204 4.412.475 6.855.815 9.434.068.475.135 1.018.203 1.494.136 1.357.136 5.43.136 10.18v8.281l-.747-.068z" fill="#333"></path><path d="M25.645 20.527c-1.221 0-2.172-.61-2.579-1.629-.746-1.968-.679-3.937-.679-4.004 0-.204.136-.34.34-.408l4.412-.814c.203-.068.407.068.475.271 0 .136.678 2.512.95 3.937.271 1.561-1.29 2.376-2.172 2.58-.068 0-.34.067-.747.067zm-2.375-5.362c0 .611.135 2.036.61 3.394.34.95 1.154 1.086 1.765 1.086.272 0 .543-.068.543-.068s1.765-.407 1.561-1.629c-.203-1.086-.678-2.783-.882-3.53l-3.597.747z" fill="#333"></path><path d="M15.668 15.64c-1.222 0-1.697-.679-1.697-.679 0-.067-.068-.067-.068-.135l-.34-1.63.815-.203.34 1.493c.135.136.542.408 1.357.272 1.018-.136 1.018-.34 1.018-.543 0-.272-.068-1.357-.136-1.697l.815-.068c0 .068.135 1.358.135 1.765 0 .814-.475 1.222-1.764 1.357-.136.068-.272.068-.476.068z" fill="#333"></path><path d="M10.849 19.373c-1.154 0-1.63-.678-1.63-.678 0-.068-.067-.068-.067-.136l-.34-1.63.815-.135.34 1.493c.135.136.474.34 1.289.272 1.018-.136 1.018-.34 1.018-.543 0-.272-.068-1.358-.136-1.697l.815-.068c0 .068.136 1.358.136 1.765 0 .814-.476 1.222-1.697 1.357h-.543z" fill="#333"></path><path d="M6.572 25.482c-1.154 0-1.629-.679-1.629-.679 0-.068-.067-.068-.067-.136l-.34-1.629.815-.135.339 1.493c.136.136.475.34 1.29.271 1.018-.135 1.018-.339 1.018-.543 0-.271-.068-1.357-.136-1.696l.814-.068c0 .068.136 1.357.136 1.764 0 .815-.475 1.222-1.697 1.358h-.543z" fill="#333"></path><path d="M2.364 31.319c-1.154 0-1.629-.679-1.629-.679l.68-.475-.34.204.34-.272s.338.475 1.357.272c.746-.136.95-.272.95-.34l.746.408c-.203.407-.678.61-1.56.746-.272.136-.408.136-.544.136z" fill="#333"></path><path d="M63.926 53.785l-.815-.136c.747-4.072.68-7.737.68-10.656 0-1.697 0-3.122.067-4.412 0-.339.068-.746.136-1.086.34-3.19.678-6.787-1.222-7.737l-.068-.068s-.407-.34-1.222-.136l-.271-.814c1.086-.272 1.697.136 1.9.271 2.376 1.222 1.969 5.09 1.63 8.552-.069.34-.069.747-.136 1.086-.136 1.222-.068 2.647-.068 4.344.068 2.919.068 6.652-.611 10.792z" fill="#333"></path><path d="M60.193 37.563l-.815-.203c0-.068 1.968-8.96 1.29-12.353-.204-1.222-.747-2.036-1.562-2.376-.95-.407-2.036-.068-2.51.204l-.476-.679c.747-.475 2.104-.746 3.326-.271.747.339 1.697 1.086 2.036 2.986.679 3.597-1.222 12.285-1.29 12.692z" fill="#333"></path><path d="M55.305 32.405l-.815-.136c.543-4.344 1.63-12.896 1.561-13.914 0-.61-.407-1.154-.95-1.56-.882-.544-2.104-.476-3.258.067l-.34-.747c1.358-.678 2.92-.678 4.005 0 .815.476 1.358 1.29 1.358 2.172.136 1.426-1.493 13.643-1.561 14.118z" fill="#333"></path><path d="M32.975 53.717h-.815v-8.28c0-4.752-.068-8.892.136-10.181.068-.543.136-1.019.204-1.494.339-2.579.61-4.954.814-9.434.136-2.647.679-9.095 3.801-11.335 1.154-.814 2.444-1.018 4.005-.543 4.886 1.493 3.461 8.077 2.579 12.014-.204.814-.34 1.493-.407 1.968-.204 1.358-.068 1.9 0 2.104l.135-.136c.407-.678 1.018-5.158 1.493-8.823.136-.883.204-1.765.34-2.647.34-2.308.95-3.733 1.9-4.412.883-.679 1.969-.543 2.783-.407a2.65 2.65 0 0 1 1.765 1.154c.543.882.678 2.24.271 3.733-.543 1.968-2.104 11.674-2.104 11.742l-.814-.136c.068-.407 1.629-9.842 2.172-11.878.339-1.221.271-2.375-.204-3.054-.271-.407-.679-.679-1.222-.815-.678-.135-1.493-.203-2.172.272-.746.543-1.29 1.832-1.56 3.869-.136.814-.204 1.697-.34 2.579-.679 5.158-1.154 8.416-1.629 9.163-.272.475-.679.746-1.086.61-.61-.203-.815-1.221-.61-3.054.067-.543.203-1.221.406-2.036.815-3.665 2.172-9.842-2.036-11.063-1.29-.407-2.308-.272-3.258.407-2.782 2.036-3.325 8.145-3.461 10.656-.204 4.48-.475 6.923-.815 9.502-.068.475-.136.95-.203 1.494-.136 1.29-.136 5.362-.136 10.113.068 2.783.068 5.633.068 8.348z" fill="#333"></path><path d="M39.423 20.527c-.407 0-.678-.068-.746-.068-.883-.203-2.444-1.018-2.172-2.579.271-1.425.95-3.869.95-3.937.068-.203.272-.339.475-.271l4.412.814c.204.068.34.204.34.408 0 .067.067 2.036-.68 4.004-.407 1.018-1.357 1.63-2.579 1.63zm-1.29-6.04c-.203.746-.678 2.443-.882 3.529-.203 1.154 1.562 1.629 1.562 1.629.067 0 .271.068.543.068.61 0 1.425-.204 1.764-1.086.543-1.358.611-2.783.611-3.394l-3.597-.747z" fill="#333"></path><path d="M49.4 15.64c-.135 0-.339 0-.542-.068-1.29-.203-1.765-.543-1.765-1.357 0-.407.135-1.697.135-1.765l.815.068c0 .34-.136 1.425-.136 1.697 0 .204 0 .407 1.018.543.883.136 1.222-.136 1.358-.272l.34-1.493.814.204-.34 1.629c0 .068 0 .135-.068.135 0 .068-.475.68-1.629.68z" fill="#333"></path><path d="M54.152 19.373c-.136 0-.34 0-.543-.068-1.222-.203-1.697-.61-1.697-1.357 0-.407.136-1.697.136-1.765l.814.068c0 .34-.135 1.425-.135 1.697 0 .204 0 .407 1.018.543.814.136 1.154-.136 1.29-.272l.339-1.493.814.136-.34 1.629c0 .068 0 .136-.067.136 0 .068-.475.746-1.63.746z" fill="#333"></path><path d="M58.495 25.482c-.136 0-.34 0-.543-.068-1.222-.204-1.697-.61-1.697-1.358 0-.407.136-1.696.136-1.764l.814.068c0 .34-.136 1.425-.136 1.697 0 .203 0 .407 1.018.543.815.135 1.154-.136 1.29-.272l.34-1.493.814.136-.34 1.628c0 .068 0 .136-.067.136-.068.136-.543.747-1.63.747z" fill="#333"></path><path d="M62.704 31.319c-.136 0-.34 0-.543-.068-.883-.136-1.358-.34-1.561-.747l.746-.407c0 .068.204.204.95.34.95.135 1.29-.272 1.358-.272l.679.475c0 .068-.475.679-1.63.679z" fill="#333"></path></svg> 