<?xml version="1.0" encoding="UTF-8"?> <svg xmlns="http://www.w3.org/2000/svg" width="65" height="65" viewBox="0 0 65 65" fill="none"><path d="M13.223 59.146l-7.785-7.785a.557.557 0 0 1 0-.798l24.303-24.304c.2-.2.55-.25.799 0l7.785 7.785c.2.2.25.55 0 .799L14.021 59.146c-.249.15-.598.2-.798 0zm-6.637-8.234l7.036 7.036 23.505-23.505-7.036-7.036L6.586 50.912z" fill="#333"></path><path d="M34.93 32.248l-2.594-2.595a.557.557 0 0 1 0-.799l9.432-9.432c.2-.2.549-.25.798 0l2.595 2.595c.2.2.25.55 0 .799l-9.432 9.432c-.3.2-.599.2-.798 0z" fill="#FFF4F2"></path><path d="M34.93 32.248l-2.594-2.595a.557.557 0 0 1 0-.799l9.432-9.432c.2-.2.549-.25.798 0l2.595 2.595c.2.2.25.55 0 .799l-9.432 9.432c-.3.2-.599.2-.798 0zm-1.496-2.995L35.28 31.1l8.684-8.684-1.847-1.846-8.683 8.683z" fill="#333"></path><path d="M44.363 22.816l-2.595-2.595c-.2-.2-.2-.5-.05-.749L52.597 7.395c.1-.1.25-.15.4-.2.149-.05.249.05.398.2l3.843 3.843c.1.1.15.25.2.399-.05.15-.1.3-.2.4L45.161 22.914c-.25.05-.599.1-.798-.1z" fill="#FFF4F2"></path><path d="M44.363 22.816l-2.595-2.595c-.2-.2-.2-.5-.05-.749L52.597 7.395c.1-.1.25-.15.4-.2.149-.05.249.05.398.2l3.843 3.843c.1.1.15.25.2.399-.05.15-.1.3-.2.4L45.161 22.914c-.25.05-.599.1-.798-.1zm-1.448-3.045l1.897 1.897 11.278-10.18-3.044-3.045-10.13 11.328z" fill="#333"></path><path d="M54.693 9.391l-.749-.748-1.996 1.996.749.748 1.996-1.996z" fill="#333"></path><path d="M55.891 10.589l-.748-.749-1.997 1.997.749.748 1.996-1.996z" fill="#333"></path></svg> 