<?xml version="1.0" encoding="UTF-8"?> <svg xmlns="http://www.w3.org/2000/svg" width="68" height="65" viewBox="0 0 68 65" fill="none"><path d="M18.024 29.324c1.224-2.782 3.339-5.675 6.287-8.624 8.847-8.846 22.2-15.189 26.93-10.46 3.56 3.561.667 11.462-3.228 17.693l-1.001-.667c4.562-7.345 5.897-13.687 3.394-16.191-3.728-3.728-16.191 1.502-25.204 10.515-2.838 2.838-4.84 5.62-6.01 8.235l-1.168-.5z" fill="#333"></path><path d="M19.639 41.843c-1.725-1.725-2.727-3.95-2.838-6.287l1.168-.056c.112 2.114.946 3.95 2.504 5.508 4.618 4.618 11.573 3.005 19.084-4.395l.834.834c-7.956 7.845-15.69 9.459-20.752 4.396z" fill="#333"></path><path d="M.943 37.726L.11 36.89l18.305-18.305c8.568-8.568 16.413-6.287 16.747-6.176l-.334 1.113.167-.612-.167.612c-.056-.056-7.511-2.17-15.523 5.842L.944 37.725z" fill="#333"></path><path d="M24.312 61.094l-.834-.835 18.305-18.305a28.375 28.375 0 0 0 3.004-3.56l1.002.667c-.835 1.28-1.892 2.56-3.116 3.783L24.368 61.15l-.056-.055z" fill="#333"></path><path d="M33.882 45.626a.6.6 0 0 1-.167-.39c0-.11.055-.277.167-.389l.055-.055c1.169-1.169 11.35-11.796 4.062-19.084a.62.62 0 0 1 0-.89.62.62 0 0 1 .89 0c7.289 7.288 18.083-3.06 19.251-4.229l.056-.056.055-.055a.592.592 0 0 1 .668-.112c.223.112.39.279.334.557 0 .111-.111.334-.223.445-1.224 1.224-11.517 11.962-4.228 19.25a.62.62 0 0 1 0 .891.62.62 0 0 1-.89 0c-7.29-7.289-17.916 2.893-19.14 4.117l-.056.056a.592.592 0 0 1-.667.111l-.167-.167z" fill="#FFF4F2"></path><path d="M33.882 45.626a.6.6 0 0 1-.167-.39c0-.11.055-.277.167-.389l.055-.055c1.169-1.169 11.35-11.796 4.062-19.084a.62.62 0 0 1 0-.89.62.62 0 0 1 .89 0c7.289 7.288 18.083-3.06 19.251-4.229l.056-.056.055-.055a.592.592 0 0 1 .668-.112c.223.112.39.279.334.557 0 .111-.111.334-.223.445-1.224 1.224-11.517 11.962-4.228 19.25a.62.62 0 0 1 0 .891.62.62 0 0 1-.89 0c-7.29-7.289-17.916 2.893-19.14 4.117l-.056.056a.592.592 0 0 1-.667.111l-.167-.167zm7.122-17.915c2.17 4.618-.167 9.736-2.56 13.353 3.617-2.392 8.68-4.674 13.353-2.56-2.17-4.617.223-9.792 2.615-13.408-3.616 2.392-8.735 4.729-13.408 2.615z" fill="#333"></path><path d="M11.182 39.617a.62.62 0 0 1 0-.89l.111-.111c.557-.557 3.505-3.728 3.45-6.788 0-1.224-.445-2.226-1.335-3.116a.62.62 0 0 1 0-.89c.278-.278.612-.278.89 0 .89.89 1.891 1.335 3.115 1.335 3.227 0 6.566-3.227 6.955-3.616a.592.592 0 0 1 .668-.111c.222.11.39.278.334.556a.601.601 0 0 1-.167.39l-.111.11c-.612.613-3.561 3.784-3.561 6.9 0 1.224.445 2.225 1.28 3.06a.62.62 0 0 1 0 .89c-.279.278-.613.278-.89 0-.891-.89-1.893-1.335-3.117-1.335-3.338 0-6.787 3.56-6.843 3.616a.714.714 0 0 1-.556.223c0-.111-.112-.112-.223-.223z" fill="#FFF4F2"></path><path d="M11.182 39.617a.62.62 0 0 1 0-.89l.111-.111c.557-.557 3.505-3.728 3.45-6.788 0-1.224-.445-2.226-1.335-3.116a.62.62 0 0 1 0-.89c.278-.278.612-.278.89 0 .89.89 1.891 1.335 3.115 1.335 3.227 0 6.566-3.227 6.955-3.616a.592.592 0 0 1 .668-.111c.222.11.39.278.334.556a.601.601 0 0 1-.167.39l-.111.11c-.612.613-3.561 3.784-3.561 6.9 0 1.224.445 2.225 1.28 3.06a.62.62 0 0 1 0 .89c-.279.278-.613.278-.89 0-.891-.89-1.893-1.335-3.117-1.335-3.338 0-6.787 3.56-6.843 3.616a.714.714 0 0 1-.556.223c0-.111-.112-.112-.223-.223zm4.562-9.458c.167.5.223 1.113.279 1.725 0 1.446-.612 2.948-1.28 4.172 1.224-.667 2.726-1.28 4.173-1.28.556 0 1.168.056 1.724.279-.166-.5-.222-1.113-.222-1.67.056-1.501.556-3.004 1.28-4.283-1.28.723-2.727 1.28-4.285 1.28-.612.055-1.168-.056-1.669-.223z" fill="#333"></path></svg> 